# xmcd
#
# Track frame offsets: 
#        150
#        12422
#        21819
#        27870
#        41814
#        61929
#        68112
#        76731
#        80822
#        96545
#        111710
#        122105
#        133516
#        153874
#        167940
#        186729
#        201621
#        214872
#        234226
#        255624
#        270894
#        282425
#        299434
#        322544
#        340449
#        346627
#
# Disc length: 4838 seconds
#
# Revision: 0
# Processed by: cddbd v1.5.2PL0 Copyright (c) Steve Scherf et al.
# Submitted via: ExactAudioCopy v0.95b3
#
DISCID=8712e41a
DTITLE=The Beatles  - Loveology disc 09 Rear-Left Isolation  FLAC
DYEAR=1900
DGENRE=
TTITLE0=Because
TTITLE1=Get Back
TTITLE2=Glass Onion
TTITLE3=Eleanor Rigby\\Julia (Transition)
TTITLE4=I Am The Walrus
TTITLE5=I Want To Hold Your Hand
TTITLE6=Drive My Car\\The Word\\What You're Doing
TTITLE7=Gnik Nus
TTITLE8=Something\\Blue Jay Way (Transition)
TTITLE9=Being For The Benefit of Mr. Kite!\\I Want You (She's So Heavy
TTITLE9=)\\Helter Skelter
TTITLE10=Help!
TTITLE11=Blackbird\\Yesterday
TTITLE12=Strawberry Fields Forever
TTITLE13=Within You Without You\\Tomorrow Never Knows
TTITLE14=Lucy in the Sky With Diamonds
TTITLE15=Octopus's Garden
TTITLE16=Lady Madonna
TTITLE17=Here Comes The Sun\\The Inner Light (Transition)
TTITLE18=Come Together\\Dear Prudence\\Cry Baby Cry (Transition)
TTITLE19=Revolution
TTITLE20=Back In The U.S.S.R.
TTITLE21=While My Guitar Gently Weeps
TTITLE22=A Day In The Life
TTITLE23=Hey Jude
TTITLE24=Sgt. Pepper's Lonely Hearts Club Band (Reprise)
TTITLE25=All You Need Is Love
EXTD=
EXTT0=
EXTT1=
EXTT2=
EXTT3=
EXTT4=
EXTT5=
EXTT6=
EXTT7=
EXTT8=
EXTT9=
EXTT10=
EXTT11=
EXTT12=
EXTT13=
EXTT14=
EXTT15=
EXTT16=
EXTT17=
EXTT18=
EXTT19=
EXTT20=
EXTT21=
EXTT22=
EXTT23=
EXTT24=
EXTT25=
PLAYORDER=
